External Loads File
version=1
nRows=38
nColumns=13
Range=5.000000e-03-10 seconds
endheader
time 	forceRightX 	forceRightY 	forceRightZ 	pointRightX 	pointRightY 	pointRightZ 	forceLeftX 	forceLeftY 	forceLeftZ 	pointLeftX 	pointLeftY 	pointLeftZ 		
2.505000 296.182086 966.496755 -0.000000 0.411557 0.319620 -0.147921 -38.896167 -105.352527 -0.000000 0.116941 0.328506 -0.377795
2.510000 266.114926 981.575087 -0.000000 0.411901 0.314305 -0.147956 -39.275487 -106.047628 -0.000000 0.117599 0.334538 -0.377861
2.515000 287.912235 981.762587 -0.000000 0.412222 0.308835 -0.148109 -45.299503 -104.521811 -0.000000 0.118502 0.339370 -0.377959
2.520000 258.092709 996.461054 -0.000000 0.412087 0.303531 -0.148536 -45.822183 -105.266405 -0.000000 0.119661 0.344275 -0.378052
2.525000 297.426574 992.202391 -0.000000 0.412027 0.298065 -0.148596 -53.548608 -102.637506 -0.000000 0.121164 0.349523 -0.378364
2.530000 267.879112 1007.596231 -0.000000 0.411839 0.292762 -0.148794 -54.005805 -103.568826 -0.000000 0.122422 0.355199 -0.378301
2.535000 302.516302 1005.120663 -0.000000 0.411166 0.287350 -0.148467 -60.927616 -100.978864 -0.000000 0.124043 0.360178 -0.378465
2.540000 271.236067 1021.549632 -0.000000 0.410638 0.281963 -0.148506 -61.109156 -102.326819 -0.000000 0.125821 0.365026 -0.378588
2.545000 295.612494 1022.481647 -0.000000 0.409942 0.276622 -0.148560 -66.764602 -100.399240 -0.000000 0.127766 0.370042 -0.378690
2.550000 265.517138 1038.369101 -0.000000 0.408891 0.271230 -0.148705 -66.942246 -102.121924 -0.000000 0.129896 0.375108 -0.378788
2.555000 313.009117 1032.724714 -0.000000 0.407827 0.265794 -0.148761 -74.550918 -98.812844 -0.000000 0.132214 0.380216 -0.378982
2.560000 282.683308 1048.903607 -0.000000 0.406611 0.260571 -0.148809 -74.475021 -101.080979 -0.000000 0.134683 0.385286 -0.379168
2.565000 323.286522 1044.498039 -0.000000 0.405168 0.255355 -0.148841 -80.988401 -98.302982 -0.000000 0.137261 0.390403 -0.379261
2.570000 295.438968 1059.829984 -0.000000 0.403588 0.250074 -0.148906 -80.786390 -100.771071 -0.000000 0.140039 0.395465 -0.379452
2.575000 339.458613 1053.444047 -0.000000 0.401966 0.244926 -0.149274 -87.111622 -97.632813 -0.000000 0.142875 0.400508 -0.379581
2.580000 306.888500 1069.737990 -0.000000 0.400074 0.239772 -0.149291 -86.001149 -100.614722 -0.000000 0.145885 0.405613 -0.379725
2.585000 351.134468 1061.858722 -0.000000 0.398043 0.234824 -0.149404 -91.758506 -97.145400 -0.000000 0.149078 0.410578 -0.379825
2.590000 320.094943 1076.702096 -0.000000 0.395711 0.230016 -0.149460 -90.267338 -99.846661 -0.000000 0.152383 0.415410 -0.380123
2.595000 344.062672 1073.699112 -0.000000 0.393381 0.225107 -0.149506 -93.589027 -97.665503 -0.000000 0.155866 0.420431 -0.380139
2.600000 310.008642 1087.722558 -0.000000 0.390836 0.220435 -0.149626 -91.405989 -100.221772 -0.000000 0.159435 0.425180 -0.380286
2.605000 352.206006 1077.849307 -0.000000 0.387874 0.215911 -0.149301 -96.034771 -95.952153 -0.000000 0.163176 0.429921 -0.380368
2.610000 319.094750 1090.352626 -0.000000 0.385291 0.211348 -0.149822 -93.816406 -97.943470 -0.000000 0.167086 0.434687 -0.380517
2.615000 359.067358 1079.161232 -0.000000 0.382043 0.207085 -0.149517 -98.079996 -93.150350 -0.000000 0.171054 0.439253 -0.380571
2.620000 324.825242 1090.064442 -0.000000 0.378947 0.202722 -0.149602 -95.901097 -94.522833 -0.000000 0.175219 0.443753 -0.380677
2.625000 357.332664 1078.433461 -0.000000 0.375681 0.198674 -0.149724 -99.493056 -89.404925 -0.000000 0.179467 0.448111 -0.380807
2.630000 320.639726 1086.634285 -0.000000 0.372311 0.194775 -0.149819 -97.294588 -90.053067 -0.000000 0.183819 0.452420 -0.380864
2.635000 365.247184 1066.812386 -0.000000 0.368894 0.190816 -0.149803 -101.621057 -82.820500 -0.000000 0.188430 0.456594 -0.380926
2.640000 328.074117 1070.428329 -0.000000 0.365030 0.187088 -0.150416 -99.278771 -82.881248 -0.000000 0.193010 0.460551 -0.381043
2.645000 359.596637 1048.401157 -0.000000 0.361178 0.183577 -0.150678 -101.889925 -76.228544 -0.000000 0.197139 0.464407 -0.380554
2.650000 321.369918 1045.179280 -0.000000 0.357260 0.180212 -0.150715 -98.967015 -76.076687 -0.000000 0.201875 0.468215 -0.380668
2.655000 359.519905 1012.596379 -0.000000 0.353305 0.177071 -0.150768 -101.059357 -68.406991 -0.000000 0.218750 0.471822 -0.389117
2.660000 320.247645 1001.284070 -0.000000 0.349260 0.174072 -0.150791 -97.387350 -68.145066 -0.000000 0.219974 0.475330 -0.386949
2.665000 353.246428 960.592862 -0.000000 0.345141 0.171115 -0.150834 -98.183900 -60.473780 -0.000000 0.219288 0.478698 -0.382484
2.670000 313.801552 940.138611 -0.000000 0.340921 0.168434 -0.150694 -94.029614 -59.646991 -0.000000 0.222080 0.482532 -0.381513
2.675000 355.680497 885.356400 -0.000000 0.336553 0.165767 -0.150516 -94.581589 -49.743835 -0.000000 0.227502 0.485519 -0.381075
2.680000 318.463524 855.248091 -0.000000 0.331989 0.163609 -0.150376 -90.190872 -46.978863 -0.000000 0.232598 0.488331 -0.381198
2.685000 333.487240 800.310229 -0.000000 0.327262 0.161660 -0.150259 -88.189237 -37.166641 -0.000000 0.237830 0.491186 -0.381183
2.690000 296.558071 762.460555 -0.000000 0.322526 0.159902 -0.150152 -83.213500 -31.226252 -0.000000 0.243051 0.493509 -0.381296
